<svg xmlns="http://www.w3.org/2000/svg" viewBox="0 0 200 200" width="200" height="200">
  <rect width="200" height="200" rx="40" fill="#0f1a14"/>
  <defs>
    <filter id="glow" x="-60%" y="-60%" width="220%" height="220%">
      <feGaussianBlur stdDeviation="3" result="b"/>
      <feMerge><feMergeNode in="b"/><feMergeNode in="SourceGraphic"/></feMerge>
    </filter>
  </defs>
  <!-- network edges -->
  <g stroke="rgba(210,240,225,0.38)" stroke-width="1.1" stroke-linecap="round">
    <!-- outer perimeter -->
    <line x1="100" y1="15" x2="137" y2="22"/><line x1="137" y1="22" x2="160" y2="44"/><line x1="160" y1="44" x2="170" y2="72"/><line x1="170" y1="72" x2="165" y2="106"/><line x1="165" y1="106" x2="150" y2="138"/><line x1="150" y1="138" x2="130" y2="163"/><line x1="130" y1="163" x2="100" y2="173"/><line x1="100" y1="173" x2="70" y2="163"/><line x1="70" y1="163" x2="50" y2="138"/><line x1="50" y1="138" x2="35" y2="106"/><line x1="35" y1="106" x2="30" y2="72"/><line x1="30" y1="72" x2="40" y2="44"/><line x1="40" y1="44" x2="63" y2="22"/><line x1="63" y1="22" x2="100" y2="15"/>
    <!-- skip-2 chords -->
    <line x1="100" y1="15" x2="160" y2="44"/><line x1="137" y1="22" x2="170" y2="72"/><line x1="160" y1="44" x2="165" y2="106"/><line x1="170" y1="72" x2="150" y2="138"/><line x1="165" y1="106" x2="130" y2="163"/><line x1="150" y1="138" x2="100" y2="173"/><line x1="130" y1="163" x2="70" y2="163"/><line x1="100" y1="173" x2="50" y2="138"/><line x1="70" y1="163" x2="35" y2="106"/><line x1="50" y1="138" x2="30" y2="72"/><line x1="35" y1="106" x2="40" y2="44"/><line x1="30" y1="72" x2="63" y2="22"/><line x1="40" y1="44" x2="100" y2="15"/><line x1="63" y1="22" x2="137" y2="22"/>
    <!-- mid-ring -->
    <line x1="79" y1="41" x2="121" y2="41"/><line x1="121" y1="41" x2="150" y2="80"/><line x1="150" y1="80" x2="150" y2="124"/><line x1="150" y1="124" x2="121" y2="157"/><line x1="121" y1="157" x2="79" y2="157"/><line x1="79" y1="157" x2="50" y2="124"/><line x1="50" y1="124" x2="50" y2="80"/><line x1="50" y1="80" x2="79" y2="41"/>
    <!-- mid to outer -->
    <line x1="79" y1="41" x2="100" y2="15"/><line x1="79" y1="41" x2="63" y2="22"/><line x1="79" y1="41" x2="40" y2="44"/>
    <line x1="121" y1="41" x2="100" y2="15"/><line x1="121" y1="41" x2="137" y2="22"/><line x1="121" y1="41" x2="160" y2="44"/>
    <line x1="150" y1="80" x2="160" y2="44"/><line x1="150" y1="80" x2="170" y2="72"/><line x1="150" y1="80" x2="165" y2="106"/>
    <line x1="150" y1="124" x2="165" y2="106"/><line x1="150" y1="124" x2="150" y2="138"/><line x1="150" y1="124" x2="130" y2="163"/>
    <line x1="121" y1="157" x2="130" y2="163"/><line x1="121" y1="157" x2="100" y2="173"/><line x1="121" y1="157" x2="70" y2="163"/>
    <line x1="79" y1="157" x2="100" y2="173"/><line x1="79" y1="157" x2="70" y2="163"/><line x1="79" y1="157" x2="50" y2="138"/>
    <line x1="50" y1="124" x2="50" y2="138"/><line x1="50" y1="124" x2="35" y2="106"/><line x1="50" y1="124" x2="30" y2="72"/>
    <line x1="50" y1="80" x2="30" y2="72"/><line x1="50" y1="80" x2="40" y2="44"/><line x1="50" y1="80" x2="63" y2="22"/>
    <!-- mid to TW -->
    <line x1="79" y1="41" x2="64" y2="76"/><line x1="79" y1="41" x2="82" y2="76"/>
    <line x1="121" y1="41" x2="147" y2="76"/><line x1="121" y1="41" x2="97" y2="76"/>
    <line x1="50" y1="80" x2="64" y2="76"/><line x1="50" y1="80" x2="82" y2="92"/>
    <line x1="150" y1="80" x2="147" y2="76"/><line x1="150" y1="80" x2="121" y2="93"/>
    <line x1="79" y1="157" x2="82" y2="125"/><line x1="79" y1="157" x2="82" y2="141"/>
    <line x1="150" y1="124" x2="133" y2="117"/><line x1="150" y1="124" x2="121" y2="93"/>
    <line x1="50" y1="124" x2="82" y2="141"/><line x1="50" y1="124" x2="82" y2="125"/>
    <line x1="121" y1="157" x2="109" y2="117"/><line x1="121" y1="157" x2="133" y2="117"/>
    <!-- cross-center -->
    <line x1="82" y1="92" x2="97" y2="76"/><line x1="82" y1="109" x2="121" y2="93"/><line x1="82" y1="125" x2="109" y2="117"/>
    <!-- outer to TW direct -->
    <line x1="100" y1="15" x2="82" y2="76"/><line x1="100" y1="15" x2="147" y2="76"/>
    <line x1="63" y1="22" x2="64" y2="76"/><line x1="137" y1="22" x2="147" y2="76"/>
    <line x1="35" y1="106" x2="82" y2="141"/><line x1="100" y1="173" x2="82" y2="141"/>
  </g>
  <!-- TW golden edges -->
  <g stroke="#ffc030" stroke-width="2.6" stroke-linecap="round" filter="url(#glow)">
    <!-- T crossbar -->
    <line x1="64" y1="76" x2="82" y2="76"/><line x1="82" y1="76" x2="97" y2="76"/>
    <!-- T vertical -->
    <line x1="82" y1="76" x2="82" y2="92"/><line x1="82" y1="92" x2="82" y2="109"/><line x1="82" y1="109" x2="82" y2="125"/><line x1="82" y1="125" x2="82" y2="141"/>
    <!-- W -->
    <line x1="97" y1="76" x2="109" y2="117"/><line x1="109" y1="117" x2="121" y2="93"/><line x1="121" y1="93" x2="133" y2="117"/><line x1="133" y1="117" x2="147" y2="76"/>
  </g>
  <!-- network nodes -->
  <g fill="#4abb86">
    <circle cx="100" cy="15" r="4.8"/><circle cx="137" cy="22" r="4.8"/><circle cx="160" cy="44" r="4.8"/><circle cx="170" cy="72" r="4.8"/><circle cx="165" cy="106" r="4.8"/><circle cx="150" cy="138" r="4.8"/><circle cx="130" cy="163" r="4.8"/><circle cx="100" cy="173" r="4.8"/><circle cx="70" cy="163" r="4.8"/><circle cx="50" cy="138" r="4.8"/><circle cx="35" cy="106" r="4.8"/><circle cx="30" cy="72" r="4.8"/><circle cx="40" cy="44" r="4.8"/><circle cx="63" cy="22" r="4.8"/>
    <circle cx="79" cy="41" r="4.8"/><circle cx="121" cy="41" r="4.8"/><circle cx="150" cy="80" r="4.8"/><circle cx="150" cy="124" r="4.8"/><circle cx="121" cy="157" r="4.8"/><circle cx="79" cy="157" r="4.8"/><circle cx="50" cy="124" r="4.8"/><circle cx="50" cy="80" r="4.8"/>
  </g>
  <!-- TW nodes (golden) -->
  <g fill="#ffaa18" filter="url(#glow)">
    <circle cx="64" cy="76" r="5.2"/><circle cx="82" cy="76" r="5.2"/><circle cx="97" cy="76" r="5.2"/><circle cx="82" cy="92" r="5.2"/><circle cx="82" cy="109" r="5.2"/><circle cx="82" cy="125" r="5.2"/><circle cx="82" cy="141" r="5.2"/><circle cx="109" cy="117" r="5.2"/><circle cx="121" cy="93" r="5.2"/><circle cx="133" cy="117" r="5.2"/><circle cx="147" cy="76" r="5.2"/>
  </g>
</svg>
